<?xml version="1.0" encoding="utf-8"?>
<!-- Generator: Adobe Illustrator 21.0.2, SVG Export Plug-In . SVG Version: 6.00 Build 0)  -->
<svg version="1.1" id="Слой_1" xmlns="http://www.w3.org/2000/svg" xmlns:xlink="http://www.w3.org/1999/xlink" x="0px" y="0px"
	 viewBox="0 0 153.366394 99.1297607" style="enable-background:new 0 0 153.366394 99.1297607;" xml:space="preserve">
<style type="text/css">
	.st0{fill:#FFFFFF;}
</style>
<path class="st0" d="M62.1928101,81.9656677c0.1019897-0.51297,0.0099792-0.9649963-0.2750244-1.3859863l-2.1210022-3.1440125
	c-0.2850037-0.4199829-0.6999817-0.6499939-1.2460022-0.6879883c-0.5779724-0.1019897-1.0939941-0.0119934-1.5149841,0.2730103
	l-4.1480103,2.8169861l0.0240173-4.4419861c0.0039978-0.4490051-0.184021-0.901001-0.5650024-1.3240051
	c-0.4140015-0.45401-0.82901-0.6839905-1.3110046-0.6889954l-3.79599-0.0410156
	c-0.1450195-0.0019836-0.2910156,0.0290222-0.4360046,0.0750122c-0.3619995,0.0749817-0.6929932,0.2850037-1.0230103,0.6399841
	c-0.3859863,0.4190063-0.57901,0.8680115-0.57901,1.3180237v4.4419861l-4.1169739-2.8619995
	c-0.4179993-0.2900085-0.9330139-0.3859863-1.5120239-0.2900085c-0.54599,0.0320129-0.9639893,0.2579956-1.2539978,0.6750183
	l-2.1549988,3.1210022c-0.2890015,0.4179993-0.3859863,0.867981-0.2890015,1.3829956
	c0.1280212,0.5469971,0.3860168,0.9320068,0.7390137,1.2210083l4.4979858,3.17099L36.6138,89.4056702
	c-0.3529968,0.2890015-0.6109924,0.6750183-0.7390137,1.2220154c-0.0969849,0.5149841,0,0.9649963,0.2890015,1.3829956
	l2.1549988,3.1210022c0.2900085,0.4169922,0.7080078,0.6419983,1.2539978,0.6740112
	c0.57901,0.0959778,1.0940247,0,1.5120239-0.2890015l4.1169739-2.8619995v4.4419861
	c0,0.4500122,0.1930237,0.8990173,0.57901,1.3179932c0.3300171,0.355011,0.6610107,0.5639954,1.0230103,0.6400146
	c0.144989,0.04599,0.2909851,0.0769958,0.4360046,0.0749817l3.79599-0.0409851
	c0.4819946-0.006012,0.8970032-0.2350159,1.3110046-0.6900024c0.3809814-0.4230042,0.5690002-0.8739929,0.5650024-1.3240051
	l-0.0240173-4.4419861l4.1480103,2.8169861c0.42099,0.2850037,0.9370117,0.3760071,1.5149841,0.2740173
	c0.5460205-0.0380249,0.9609985-0.2680054,1.2460022-0.6890259l2.1210022-3.1429749
	c0.2850037-0.4219971,0.3770142-0.8730164,0.2750244-1.3860168c-0.1350098-0.54599-0.3960266-0.9289856-0.7530212-1.2139893
	l-4.4349976-3.0559998l4.4349976-3.0559998C61.7967834,82.8936768,62.0578003,82.5116882,62.1928101,81.9656677"/>
<path class="st0" d="M18.9250183,13.150177c-1.3880005-1.3839722-3.5120239-2.0769958-6.3690186-2.0769958H8.4720154
	c-0.5440063,0-0.9390259-0.1549988-1.184021-0.46698C7.0429993,10.2941895,6.92099,9.9611816,6.92099,9.6081848
	c0-0.3800049,0.1220093-0.7259827,0.3660278-1.0379944c0.2449951-0.3120117,0.6380005-0.4679871,1.1809998-0.4679871h6.8399963
	c0.6779785,0,1.2819824-0.1150208,1.8109741-0.3450012c0.5300293-0.2290039,0.9710083-0.53302,1.3240051-0.9100037
	c0.3520203-0.3780212,0.6159973-0.8099976,0.7929993-1.2969971c0.177002-0.4860229,0.2650146-0.9720154,0.2650146-1.4580078
	s-0.0880127-0.9649963-0.2650146-1.4379883c-0.177002-0.4720154-0.440979-0.8910217-0.7929993-1.256012
	c-0.3529968-0.3640137-0.7879944-0.6610107-1.3029785-0.8909912c-0.5160217-0.2290039-1.1140137-0.3440247-1.7910156-0.3440247
	H8.9980164C2.9989929,0.1631775,0,3.2232056,0,9.3432007c0,2.9249878,0.7059937,5.0699768,2.1170044,6.4379883
	s3.5140076,2.0509949,6.3099976,2.0509949h4.0710144c0.5429993,0,0.9429932,0.1629944,1.2009888,0.4880066
	c0.2579956,0.3259888,0.3869934,0.6790161,0.3869934,1.0589905c0,0.3529968-0.1289978,0.6860046-0.3869934,0.9970093
	c-0.2579956,0.3129883-0.6579895,0.4679871-1.2009888,0.4679871H4.2749939c-0.6519775,0-1.2279968,0.1160278-1.7299805,0.3460083
	c-0.5030212,0.2310181-0.9230042,0.5289917-1.2620239,0.8959961c-0.3399963,0.3670044-0.5899963,0.7880249-0.7539978,1.2620239
	c-0.1629944,0.4749756-0.243988,0.9570007-0.243988,1.4459839c0,0.5159912,0.0809937,1.0110168,0.2449951,1.4850159
	c0.1629944,0.4759827,0.4070129,0.8959961,0.7340088,1.2619934c0.3269958,0.3670044,0.7340088,0.6659851,1.223999,0.8970032
	c0.4889832,0.2299805,1.0599976,0.3450012,1.7129822,0.3450012h7.8730164c5.9549866,0,8.9339905-3.0390015,8.9339905-9.1190186
	C21.0079956,16.7062073,20.3129883,14.5341797,18.9250183,13.150177"/>
<path class="st0" d="M29.4891968,28.9464722c1.0309753,0,1.9399719-0.3389893,2.7279968-1.0179749
	c0.7869873-0.678009,1.1799927-1.6549988,1.1799927-2.9309998V12.7424927l2.9320068,3.8280029
	c0.8399963,1.1130066,1.8039856,1.6690063,2.8899841,1.6690063c0.5419922,0,1.0580139-0.1230164,1.5469971-0.3670044
	c0.4880066-0.2440186,0.9630127-0.678009,1.4250183-1.302002l2.8909912-3.8280029l0.0159912,50.5239868
	c0,2.1640015,1.7720032,3.9360046,3.9370117,3.9360046c2.1659851,0,3.9379883-1.7720032,3.9379883-3.9360046l0.006012-59.072998
	c0-0.651001-0.1149902-1.2420044-0.3450012-1.7709961c-0.2310181-0.5289917-0.5429993-0.9700012-0.9370117-1.322998
	c-0.3930054-0.3529968-0.8410034-0.6239929-1.3429871-0.8139954c-0.5029907-0.1900024-1.0249939-0.2850037-1.5670166-0.2850037
	c-0.7059937,0-1.4049988,0.1690063-2.0979919,0.5090027c-0.6910095,0.3389893-1.29599,0.8339844-1.8110046,1.4859924
	l-5.6589966,7.2059937l-5.617981-7.2059937c-0.5160217-0.6520081-1.1270142-1.1470032-1.8320007-1.4859924
	c-0.7060242-0.3399963-1.4120178-0.5090027-2.1170044-0.5090027c-0.5429993,0-1.0660095,0.0950012-1.5670166,0.2850037
	c-0.5029907,0.1900024-0.9440002,0.4609985-1.3240051,0.8139954c-0.3799744,0.3529968-0.6849976,0.7940063-0.9159851,1.322998
	S25.499176,3.5424805,25.499176,4.1934814v20.8040161c0,1.3029785,0.3930054,2.2869873,1.1809998,2.9509888
	C27.4671936,28.614502,28.4031677,28.9464722,29.4891968,28.9464722"/>
<path class="st0" d="M73.1242065,2.4019775c-0.2980042-0.7319946-0.7120056-1.315979-1.2409973-1.7509766
	C71.354187,0.2179871,70.5732117,0,69.5422058,0c-1.0849915,0-1.8869934,0.2179871-2.4020081,0.651001
	c-0.5159912,0.4349976-0.9360046,1.0049744-1.2619934,1.7109985L56.189209,23.6129761
	c-0.1910095,0.4070129-0.2860107,0.9360046-0.2860107,1.5880127c0,0.5700073,0.1230164,1.0859985,0.3659973,1.5469971
	c0.2449951,0.4620056,0.5710144,0.855011,0.9779968,1.1799927c0.4070129,0.3260193,0.8610229,0.5770264,1.3640137,0.7530212
	c0.5019836,0.177002,1.0239868,0.2649841,1.5669861,0.2649841c0.678009,0,1.3300171-0.2099915,1.9550171-0.6309814
	c0.6229858-0.4200134,1.1260071-1.0640259,1.5059814-1.9330139l1.2620239-3.1350098h8.4679871l1.1400146,3.1350098
	c0.2979736,0.868988,0.7529907,1.5130005,1.3639832,1.9330139c0.6100159,0.42099,1.321991,0.6309814,2.1369934,0.6309814
	c0.5160217,0,1.0310059-0.0950012,1.5469971-0.2839966c0.5150146-0.1910095,0.9700012-0.447998,1.3640137-0.7739868
	c0.3930054-0.3260193,0.7130127-0.7190247,0.9570007-1.1809998c0.243988-0.4609985,0.3659973-0.9630127,0.3659973-1.506012
	c0-0.5700073-0.0950012-1.098999-0.2850037-1.5880127L73.1242065,2.4019775z M67.3842163,17.0179749l2.0769958-5.17099l1.75,5.17099
	H67.3842163z"/>
<path class="st0" d="M105.8239136,13.8013611c0.9369812-1.3569946,1.4049988-3.01297,1.4049988-4.96698
	c0-1.0849915-0.1900024-2.1499939-0.5700073-3.1960144c-0.3800049-1.0439758-0.9640198-1.973999-1.75-2.7879944
	c-0.7879944-0.8150024-1.7919922-1.4719849-3.0130005-1.9750061c-1.2210083-0.5009766-2.6740112-0.7529907-4.3560181-0.7529907
	h-8.5499878c-2.552002,0-3.8269958,1.3299866-3.8269958,3.9899902v20.6809998c0,2.6610107,1.322998,3.9900208,3.9689941,3.9900208
	c2.618988,0,3.9290161-1.3570251,3.9290161-4.0710144V7.6943665h4.2999878c0.8460083,0,1.4750061,0.1500244,1.8850098,0.447998
	c0.4089966,0.3000183,0.6139832,0.8140259,0.6139832,1.5469971c0,0.8150024-0.2030029,1.4120178-0.6109924,1.7920227
	c-0.4060059,0.3800049-0.9500122,0.5690002-1.6279907,0.5690002h-0.5700073c-0.9500122,0-1.696991,0.3059998-2.2390137,0.9159851
	c-0.5429993,0.6109924-0.8139954,1.4320068-0.8139954,2.4640198c-0.0279846,0.5429993,0.026001,1.0449829,0.1629944,1.5059814
	c0.1350098,0.4620056,0.2700195,0.8009949,0.4060059,1.0180054l4.8049927,8.9559937
	c0.3789978,0.7070007,0.875,1.2220154,1.4850159,1.5469971c0.6109924,0.3260193,1.2279968,0.4890137,1.8529968,0.4890137
	c0.5159912,0,1.0310059-0.0950012,1.5469971-0.2850037c0.5150146-0.1900024,0.9769897-0.45401,1.3840027-0.7940063
	c0.4070129-0.3389893,0.7330017-0.7529907,0.9769897-1.2409973c0.2449951-0.4889832,0.3670044-1.0180054,0.3670044-1.5879822
	c0-0.7060242-0.2590027-1.5200195-0.7739868-2.4430237l-3.7860107-5.9440002
	C103.7549133,16.1083679,104.8879089,15.1593628,105.8239136,13.8013611"/>
<path class="st0" d="M125.8858948,0.163269h-13.3530273c-1.2489929,0-2.2189941,0.3910217-2.9109802,1.1750183
	c-0.6920166,0.7829895-1.0379944,1.7139893-1.0379944,2.7940063c0,1.0799866,0.3459778,2.0119934,1.0379944,2.7949829
	c0.6919861,0.78302,1.6619873,1.1750183,2.9109802,1.1750183h2.7680054v16.894989
	c0,1.303009,0.3869934,2.2869873,1.1600037,2.9519958c0.7740173,0.6650085,1.6900024,0.9970093,2.7489929,0.9970093
	c1.085022,0,2.0209961-0.3320007,2.809021-0.9970093c0.7859802-0.6650085,1.1799927-1.6489868,1.1799927-2.9519958V8.1022949
	h2.6870117c1.2489929,0,2.2259827-0.3919983,2.9319763-1.1750183c0.7050171-0.7829895,1.0580139-1.7149963,1.0580139-2.7949829
	c0-1.0800171-0.3529968-2.0110168-1.0580139-2.7940063C128.1118774,0.5542908,127.1348877,0.163269,125.8858948,0.163269"/>
<path class="st0" d="M153.0204163,2.3412781c-0.2310181-0.473999-0.5370178-0.8819885-0.9160156-1.2209778
	c-0.3800049-0.3399963-0.8139954-0.6109924-1.303009-0.8150024c-0.4879761-0.2030029-0.9909973-0.3049927-1.5059814-0.3049927
	c-0.625,0-1.2420044,0.1629944-1.8520203,0.4879761c-0.6109924,0.3260193-1.1199951,0.8420105-1.5269775,1.5480042
	l-3.5420227,6.1470032l-3.5419922-6.1879883c-0.4069824-0.7050171-0.9230042-1.2149963-1.5469971-1.5270081
	c-0.625-0.3120117-1.2219849-0.4679871-1.7919922-0.4679871c-0.5429993,0-1.0580139,0.1019897-1.5469971,0.3049927
	c-0.4880066,0.20401-0.9230042,0.4889832-1.302002,0.8559875c-0.381012,0.3659973-0.6860046,0.7929993-0.9160156,1.2820129
	c-0.2309875,0.4880066-0.3469849,1.0039978-0.3469849,1.5469971c0,0.651001,0.2179871,1.3169861,0.6520081,1.9949951
	l6.4329834,10.381012v8.6309814c0,1.303009,0.3859863,2.2870178,1.1589966,2.9519958
	c0.7740173,0.6650085,1.70401,0.9970093,2.7890015,0.9970093c1.0589905,0,1.9810181-0.3320007,2.7690125-0.9970093
	c0.7869873-0.664978,1.1809998-1.6489868,1.1809998-2.9519958v-8.6309814l6.3509827-10.3410034
	c0.4330139-0.7050171,0.651001-1.4250183,0.651001-2.1570129C153.366394,3.3252869,153.2503967,2.8162842,153.0204163,2.3412781"/>
<path class="st0" d="M40.0128174,65.8519592c0.7599792-0.7189941,1.1399841-1.6899719,1.1399841-2.9109802
	c0-0.8680115-0.3120117-1.6960144-0.9360046-2.4830017l-6.677002-8.5490112l6.6360168-7.4920044
	c0.3259888-0.3249817,0.5559998-0.7049866,0.6919861-1.1399841c0.1360168-0.4330139,0.2030029-0.881012,0.2030029-1.3430176
	c0-1.1399841-0.3590088-2.0820007-1.0780029-2.8299866c-0.7189941-0.7449951-1.7299805-1.118988-3.0329895-1.118988
	c-0.7059937,0-1.2960205,0.1089783-1.7709961,0.3259888c-0.4750061,0.2170105-0.9030151,0.6109924-1.28302,1.1799927
	l-6.4729919,9.1610107v-6.7590027c0-1.2480164-0.3940125-2.2120056-1.1799927-2.8909912
	c-0.7879944-0.677002-1.7099915-1.0169983-2.7690125-1.0169983c-1.0859985,0-2.0149841,0.3399963-2.7890015,1.0169983
	c-0.7729797,0.6789856-1.1600037,1.6429749-1.1600037,2.8909912v21.0889893c0,1.303009,0.3870239,2.2870178,1.1600037,2.9510193
	c0.7740173,0.6659851,1.7030029,0.9979858,2.7890015,0.9979858c1.059021,0,1.9810181-0.3320007,2.7690125-0.9979858
	c0.7859802-0.6640015,1.1799927-1.6480103,1.1799927-2.9510193v-6.7579956l6.5549927,9.1600037
	c0.3789978,0.5429993,0.8340149,0.9360046,1.3640137,1.1809998c0.5289917,0.243988,1.0920105,0.3659973,1.6889954,0.3659973
	C38.2628174,66.9309692,39.2528076,66.5709839,40.0128174,65.8519592"/>
<path class="st0" d="M76.444397,42.6765747c-1.2350159-1.3569946-2.7820129-2.4570007-4.6409912-3.2980042
	c-1.8590088-0.8410034-4.0240173-1.2619934-6.4940186-1.2619934h-3.8259888c-0.4890137,0-0.9769897,0.1090088-1.4660034,0.3249817
	c-0.4880066,0.2180176-0.9299927,0.5090027-1.322998,0.8760071c-0.3940125,0.3659973-0.7130127,0.7940063-0.9559937,1.2820129
	c-0.2449951,0.4889832-0.3670044,0.9920044-0.3670044,1.5069885v20.6809998c0,1.2489929,0.3720093,2.2260132,1.1199951,2.9309998
	c0.7460022,0.7070007,1.7430115,1.059021,2.9920044,1.059021h4.4779968c2.3609924,0,4.4240112-0.4000244,6.1879883-1.2010193
	c1.7640076-0.7999878,3.2430115-1.8659973,4.4380188-3.1959839c1.1940002-1.3300171,2.0889893-2.8359985,2.6869812-4.5190125
	c0.5960083-1.6820068,0.8960266-3.4200134,0.8960266-5.2109985c0-1.7910156-0.3130188-3.5620117-0.9370117-5.3129883
	C78.6083984,45.5865784,77.6793823,44.0335693,76.444397,42.6765747 M71.9464111,54.6655579
	c-0.2720032,0.8010254-0.6720276,1.506012-1.2020264,2.1170044c-0.5289917,0.6110229-1.1940002,1.1060181-1.993988,1.4860229
	c-0.8009949,0.3809814-1.7170105,0.5699768-2.7479858,0.5699768h-0.7330017V46.1775818h0.6919861
	c1.0849915,0,2.0360107,0.177002,2.8500061,0.5289917c0.8139954,0.3529968,1.4790039,0.8139954,1.9949951,1.3840027
	c0.5150146,0.5700073,0.901001,1.2160034,1.1600037,1.9339905c0.2569885,0.7200012,0.3869934,1.4590149,0.3869934,2.2189941
	C72.3533936,53.0575867,72.2174072,53.8655701,71.9464111,54.6655579"/>
<path class="st0" d="M94.8312073,48.8951721h-4.0840149c-0.5440063,0-0.9389954-0.1559753-1.1839905-0.4679871
	s-0.3670044-0.6440125-0.3670044-0.9970093c0-0.3799744,0.1220093-0.7259827,0.3659973-1.0379944
	c0.2449951-0.3119812,0.6380005-0.4679871,1.1809998-0.4679871h6.8399963c0.678009,0,1.2820129-0.1150208,1.8110046-0.3450012
	c0.5299988-0.2290039,0.9710083-0.53302,1.3240051-0.9110107c0.3519897-0.3769836,0.6159973-0.8099976,0.7929993-1.29599
	c0.1759949-0.4859924,0.2649841-0.9720154,0.2649841-1.4590149c0-0.4859924-0.0889893-0.9649963-0.2649841-1.4379883
	c-0.177002-0.4710083-0.4410095-0.8900146-0.7929993-1.2550049c-0.3529968-0.3639832-0.7879944-0.6619873-1.303009-0.8919983
	c-0.5159912-0.2279968-1.1140137-0.3429871-1.7909851-0.3429871h-6.3510132c-5.9989929,0-8.9979858,3.0599976-8.9979858,9.1789856
	c0,2.9249878,0.7059937,5.0710144,2.1169739,6.4389954c1.4110107,1.3680115,3.5140076,2.0500183,6.3099976,2.0500183h4.0710144
	c0.5429993,0,0.9429932,0.1629944,1.2009888,0.4889832c0.2579956,0.3260193,0.3870239,0.6790161,0.3870239,1.0580139
	c0,0.3529968-0.1290283,0.6860046-0.3870239,0.9979858c-0.2579956,0.3120117-0.6579895,0.4680176-1.2009888,0.4680176h-8.2229919
	c-0.651001,0-1.2279968,0.1159973-1.730011,0.3459778c-0.5029907,0.2310181-0.9230042,0.5290222-1.2619934,0.8959961
	c-0.3399963,0.3660278-0.5910034,0.7880249-0.7529907,1.2620239c-0.1630249,0.4749756-0.2450256,0.9559937-0.2450256,1.4449768
	c0,0.5160217,0.0820007,1.0120239,0.2450256,1.4860229c0.1619873,0.4759827,0.4079895,0.8959961,0.7339783,1.2619934
	c0.3269958,0.3670044,0.7340088,0.6659851,1.223999,0.8959961c0.4890137,0.2309875,1.0599976,0.3460083,1.7130127,0.3460083
	h7.8729858c5.9550171,0,8.934021-3.0390015,8.934021-9.1190186c0-2.9589844-0.6950073-5.1299744-2.0830078-6.5139771
	C99.8111877,49.5871887,97.6882019,48.8951721,94.8312073,48.8951721"/>
</svg>
