<?xml version="1.0" encoding="utf-8"?>
<!-- Generator: Adobe Illustrator 21.0.2, SVG Export Plug-In . SVG Version: 6.00 Build 0)  -->
<svg version="1.1" id="Слой_1" xmlns="http://www.w3.org/2000/svg" xmlns:xlink="http://www.w3.org/1999/xlink" x="0px" y="0px"
	 viewBox="0 0 68.7310257 68.5994644" style="enable-background:new 0 0 68.7310257 68.5994644;" xml:space="preserve">
<style type="text/css">
	.st0{fill:#333333;}
</style>
<path class="st0" d="M0.1315584,24.9755344c0,5.9941292-0.6660143,30.6366558,0.9990214,34.6327438
	c0.6660143,1.6650352,1.9980428,3.3300705,2.9970644,4.6621017c2.6640568,2.9970627,6.9931493,4.3290863,10.9892349,4.3290863
	h38.2958183c8.9911957,0,15.3183289-5.9941254,15.3183289-12.9872742V24.9755344
	c0-1.3320293-2.3310471-0.9990215-3.9960861-0.9990215H48.7505989c0.3330078,1.3320293,2.9970627,5.6611214,2.9970627,10.9892349
	c0,12.3212624-13.6532898,20.3134346-24.9755325,14.985321c-4.6620998-2.3310509-8.3251781-6.9931488-9.3241997-12.6542702
	c-0.9990215-4.6621017,0.6660137-8.9911938,2.6640568-13.3202858H4.4606509
	C2.7956154,23.9765129,0.1315584,23.6435051,0.1315584,24.9755344z M34.4312935,44.2899475
	c-2.3310509,0-4.9951077-0.9990196-6.6601429-2.6640549c-6.6601429-6.327137-1.3320293-16.983366,5.6611195-16.983366
	c5.9941292,0,10.3232231,2.9970646,10.9892349,9.3242016C44.7545128,39.6278496,39.759407,44.2899475,34.4312935,44.2899475z
	 M20.7779999,34.2997322c0,8.9911957,9.3241997,16.6503601,18.9814072,12.654274
	c12.6542702-5.6611214,10.3232193-25.3085423-4.9951057-25.9745579
	C27.7711506,20.3134346,20.7779999,27.3065853,20.7779999,34.2997322z M13.4518433,16.6503563h-2.6640568V0.3330071
	c-0.9990215,0-1.9980431,0-1.9980431,1.3320285v14.985321H6.1256866V2.664057
	C2.4626083,3.6630783,0.1315584,10.3232212,0.1315584,14.985321s-0.6660143,7.3261566,0.9990214,7.3261566h20.3134346
	c0.3330078,0,4.3290939-2.9970646,5.3281155-3.3300705c2.331049-0.9990215,4.6620998-1.6650372,6.660141-1.6650372
	c2.9970665-0.3330059,5.6611214,0.3330078,8.3251801,1.3320293c9.9902115,4.9951057-3.3300705,3.6630783,26.9735756,3.6630783
	V12.987278C68.7310257,5.9941282,62.4038925,0,55.4107399,0H18.1139431v16.6503563h-2.6640568V0h-1.9980431V16.6503563z
	 M53.7457047,5.6611214h5.9941292c1.3320274,0,2.6640587,1.3320284,2.6640587,2.6640568v5.9941282
	c0,1.3320284-1.3320312,2.3310499-2.6640587,2.3310499h-5.9941292c-1.3320274,0-2.3310471-0.9990215-2.3310471-2.3310499V8.3251781
	C51.4146576,6.9931498,52.4136772,5.6611214,53.7457047,5.6611214z"/>
</svg>
