<?xml version="1.0" encoding="utf-8"?>
<!-- Generator: Adobe Illustrator 21.0.2, SVG Export Plug-In . SVG Version: 6.00 Build 0)  -->
<svg version="1.1" id="Layer_21" xmlns="http://www.w3.org/2000/svg" xmlns:xlink="http://www.w3.org/1999/xlink" x="0px" y="0px"
	 viewBox="0 0 20.2772884 11.5054693" style="enable-background:new 0 0 20.2772884 11.5054693;" xml:space="preserve">
<style type="text/css">
	.st0{fill:#333333;}
</style>
<path class="st0" d="M19.4816265,0.5054692h-3.2904797c-0.2736416-0.0000019-0.5251236,0.150445-0.65452,0.3915601
	c0,0-1.3123703,2.4169297-1.7339201,3.2310004c-1.1340599,2.1899395-1.8684397,1.5024395-1.8684397,0.4860697V1.109639
	c0-0.6098161-0.4943533-1.1041698-1.1041698-1.1041698h-2.474c-0.6850357-0.0509334-1.3475914,0.256506-1.7510004,0.8125
	c0,0,1.2562599-0.2031202,1.2562599,1.4895803c0,0.4197397,0.0216198,1.6272297,0.0413198,2.6400003
	C7.9126987,5.3502779,7.594347,5.6848783,7.1916189,5.6949005C6.977725,5.7002239,6.7722807,5.6113682,6.6296768,5.4518595
	C5.6170306,4.0434465,4.7782216,2.5178661,4.1314769,0.9082693c-0.113421-0.2458758-0.3596349-0.403194-0.6304097-0.4028001
	c-0.7136002,0-2.1415801,0-2.9896102,0C0.230903,0.5035599,0.001921,0.7294463,0.0000118,1.0100006
	C-0.0004069,1.0715207,0.0103529,1.132605,0.031767,1.1902794c0.9077902,2.4900594,4.8182602,10.3151903,9.2816706,10.3151903
	h1.8786497c0.4098959-0.0000057,0.7421799-0.3322926,0.7421799-0.7421894V9.62889
	c0.0000029-0.4027815,0.3265247-0.7292976,0.7293062-0.7292938c0.1855593,0.000001,0.3641396,0.070734,0.4993734,0.197794
	l2.2486095,2.1126995c0.2019444,0.1897373,0.4686146,0.2953682,0.7457104,0.2953796h2.9528103
	c1.4241505,0,1.4241505-0.9882393,0.6476803-1.7529392c-0.5464497-0.5381699-2.5183201-2.6166306-2.5183201-2.6166306
	c-0.3489056-0.3614578-0.3821774-0.9233208-0.0783691-1.3234301c0.6373692-0.8387604,1.6798801-2.21175,2.1219997-2.7999296
	C19.8873978,2.2085991,20.9811478,0.5054692,19.4816265,0.5054692z"/>
</svg>
