<?xml version="1.0" encoding="utf-8"?>
<!-- Generator: Adobe Illustrator 21.0.2, SVG Export Plug-In . SVG Version: 6.00 Build 0)  -->
<svg version="1.1" id="Layer_1" xmlns="http://www.w3.org/2000/svg" xmlns:xlink="http://www.w3.org/1999/xlink" x="0px" y="0px"
	 viewBox="0 0 49.0469971 47.973999" style="enable-background:new 0 0 49.0469971 47.973999;" xml:space="preserve">
<style type="text/css">
	.st0{fill:#333333;}
</style>
<path class="st0" d="M40.0879974,22.8499985H8.9589996C4.0109997,22.8499985,0,26.8649979,0,31.8119965v7.2010002
	c0,4.9469986,4.0110002,8.9610023,8.9589996,8.9610023h31.1289978c4.9469986,0,8.9589996-4.0139999,8.9589996-8.9609985v-7.2010002
	C49.0469971,26.8649979,45.0350037,22.8499985,40.0879974,22.8499985z M15.4990005,28.4560013h-2.8939991v14.3800011H9.8090019
	V28.4560013H6.9169998v-2.4460011h8.5819988C15.4989986,26.0100002,15.4989986,28.4560013,15.4990005,28.4560013z
	 M23.6739998,42.8359985h-2.4799995v-1.3600006c-0.4610004,0.5029984-0.9360008,0.887001-1.4319992,1.1459999
	c-0.4960003,0.2700005-0.9750004,0.3959999-1.441,0.3959999c-0.5760002,0-1.0039997-0.1829987-1.2970009-0.5550003
	c-0.2880001-0.3709984-0.4349995-0.9210014-0.4349995-1.6640015V30.4220009h2.4799995v9.5229988
	c0,0.2939987,0.0550003,0.5050011,0.1539993,0.6360016c0.1070004,0.1349983,0.2770004,0.1969986,0.5100002,0.1969986
	c0.1800003,0,0.4120007-0.0859985,0.691-0.2599983c0.2810001-0.1759987,0.5370007-0.3959999,0.7700005-0.6679993v-9.4290009
	h2.4799995V42.8359985z M32.6780014,40.2729988c0,0.8769989-0.1949997,1.5509987-0.5839996,2.0209999
	c-0.3870029,0.4700012-0.953001,0.7010002-1.6860027,0.7010002c-0.487999,0-0.9220009-0.0880013-1.2989998-0.2700005
	c-0.3790016-0.1800003-0.7360001-0.4570007-1.0610008-0.8409996v0.9510002h-2.5100002V26.0100002h2.5100002v5.4190006
	c0.3359985-0.375,0.6909981-0.6660004,1.0620003-0.8610001c0.3790016-0.1990013,0.7599983-0.2949982,1.1459999-0.2949982
	c0.7849998,0,1.3829994,0.262001,1.7970028,0.7910004c0.4160004,0.5289993,0.6230011,1.3040009,0.6230011,2.3199997v6.8889961
	H32.6780014z M41.2809982,36.9279976h-4.7459946v2.3390007c0,0.6520004,0.0800018,1.105999,0.2419968,1.3590012
	c0.1660004,0.2540016,0.4449997,0.3779984,0.8420029,0.3779984c0.4119949,0,0.6969986-0.1069984,0.862999-0.3209991
	c0.159996-0.2159996,0.2459946-0.6860008,0.2459946-1.4160004v-0.5649986h2.5530014v0.637001
	c0,1.2719994-0.3089981,2.230999-0.935997,2.8779984c-0.6170044,0.6409988-1.5470047,0.9589996-2.7830048,0.9589996
	c-1.112999,0-1.9899979-0.3390007-2.6269989-1.0209999c-0.6349945-0.6780014-0.9589996-1.6189995-0.9589996-2.8149986v-5.5760002
	c0-1.072998,0.3540039-1.9560013,1.0569992-2.6329994c0.701004-0.6769981,1.6040039-1.0149994,2.715004-1.0149994
	c1.137001,0,2.0099945,0.3129997,2.6189957,0.9409981c0.6090012,0.6290016,0.9140015,1.5289993,0.9140015,2.7060013V36.9279976z"/>
<path class="st0" d="M37.6429977,32.2859993c-0.3959961,0-0.6780014,0.1110001-0.8499985,0.3429985
	c-0.1759949,0.2179985-0.2579956,0.5909996-0.2579956,1.1119995v1.2550011h2.1930008v-1.2550011
	c0-0.5209999-0.0880051-0.8950005-0.262001-1.1119995C38.2990036,32.3979988,38.0199966,32.2859993,37.6429977,32.2859993z"/>
<path class="st0" d="M29.0860004,32.2439995c-0.1759987,0-0.3540001,0.0390015-0.5250015,0.1199989
	c-0.1739998,0.0789986-0.3440018,0.2099991-0.5119991,0.3800011v7.7329979
	c0.1989994,0.2000008,0.3960018,0.3540001,0.5879993,0.4420013c0.1910019,0.0849991,0.3889999,0.1329994,0.5999985,0.1329994
	c0.3050003,0,0.5270004-0.0880013,0.6699982-0.2659988c0.1409988-0.1759987,0.2130013-0.4570007,0.2130013-0.8540001v-6.4109993
	c0-0.4220009-0.0839996-0.737999-0.2599983-0.9550018C29.6779995,32.3520012,29.4200001,32.2439995,29.0860004,32.2439995z"/>
<polygon class="st0" points="13.0349998,18.5380001 16.1790009,18.5380001 16.1790009,10.8479996 19.8400002,0 16.6439991,0 
	14.698,7.4100003 14.5,7.4100003 12.4570007,0 9.29,0 13.0349998,11.1940002 "/>
<path class="st0" d="M24.1000004,18.8829994c1.2700005,0,2.2660007-0.3330002,2.9920006-0.9990005
	c0.7210007-0.6690006,1.0820007-1.5820007,1.0820007-2.7520008V8.0679989c0-1.0410008-0.3689995-1.8980002-1.1040001-2.5590005
	c-0.7399998-0.6590004-1.6879997-0.9910002-2.8439999-0.9910002c-1.2700005,0-2.2810001,0.3140001-3.032999,0.941
	c-0.75,0.6269999-1.1270008,1.4680004-1.1270008,2.5310001v7.0879989c0,1.1630001,0.3670006,2.0830002,1.1000004,2.7730007
	C21.8990002,18.5380001,22.8789997,18.8829994,24.1000004,18.8829994z M22.9419994,7.8860002
	c0-0.2969999,0.1070004-0.5369997,0.316-0.7250004C23.4749985,6.9769998,23.75,6.888,24.0919991,6.888
	c0.3689995,0,0.6679993,0.0889997,0.8959999,0.2729998c0.2269993,0.1879997,0.3400002,0.4280005,0.3400002,0.7250004v7.4509997
	c0,0.3649998-0.1110001,0.6550007-0.3360004,0.8640003c-0.2229996,0.2099991-0.5230007,0.3129997-0.8999996,0.3129997
	c-0.3689995,0-0.6539993-0.1000004-0.8540001-0.3099995c-0.1970005-0.2049999-0.2970009-0.493-0.2970009-0.868V7.8860002H22.9419994
	z"/>
<path class="st0" d="M32.3909988,18.737999c0.5250015,0,1.064003-0.1499996,1.6190033-0.4379997
	c0.560997-0.2919998,1.0979996-0.7189999,1.6090012-1.276001v1.5149994h2.7929993V4.8639998h-2.7929993v10.3799992
	c-0.2600021,0.2970009-0.5490036,0.5410004-0.8590012,0.7350006c-0.3160019,0.1919994-0.576004,0.2880001-0.7809982,0.2880001
	c-0.262001,0-0.4550018-0.0720005-0.5680008-0.2210007c-0.1150055-0.1429996-0.1800003-0.3770008-0.1800003-0.698V4.8639998
	h-2.7890034v11.4289989c0,0.8150005,0.1640015,1.4239998,0.487999,1.8279991
	C31.2600002,18.5310001,31.7419987,18.737999,32.3909988,18.737999z"/>
</svg>
